# xmcd
#
# Track frame offsets: 
#        183
#        11223
#        24993
#        37563
#        49318
#        61420
#        74885
#        85773
#        95668
#        108345
#        122808
#        135895
#        147450
#        161150
#
# Disc length: 2303 seconds
#
# Revision: 0
# Processed by: cddbd v1.5.1PL0 Copyright (c) Steve Scherf et al.
# Submitted via: ExactAudioCopy v0.95b2
#
DISCID=c108fd0e
DTITLE=Various Artist - Harlem Holiday-New York Rhythm and Blues-Vol 3
DYEAR=1900
DGENRE=Blues
TTITLE0=Pearl and The Deltars - Teenage Dream
TTITLE1=The Topps - I'Ve Got A Feeling
TTITLE2=The Charts - All Because Of Love
TTITLE3=The Channels - I Really Love You
TTITLE4=The Du Mauriers - All Night Long
TTITLE5=The Du-Droppers - Come On And Love Me Baby
TTITLE6=The Federals - Dear Loraine
TTITLE7=The Logics - One Love
TTITLE8=The Empires - Whispering Heart
TTITLE9=The Scarlets - Kiss Me
TTITLE10=The Channels - Flames In My Heart
TTITLE11=The Skylarks - Everybody´s Got Somebody
TTITLE12=The Sequins - Don't Fall In Love
TTITLE13=Jackie and The Starlites - I Found Out Too Late
EXTD=
EXTT0=
EXTT1=
EXTT2=
EXTT3=
EXTT4=
EXTT5=
EXTT6=
EXTT7=
EXTT8=
EXTT9=
EXTT10=
EXTT11=
EXTT12=
EXTT13=
PLAYORDER=
